<svg width="32" height="32" viewBox="0 0 32 32" fill="none" xmlns="http://www.w3.org/2000/svg">
<rect width="32" height="32" rx="12" fill="#4F46E5"/>
<path d="M7.17021 18.7994C6.71976 18.8009 6.30869 18.5465 6.11425 18.146C5.91981 17.7454 5.97677 17.2703 6.26056 16.9254L17.8062 5.19847C17.9845 4.99549 18.2817 4.94132 18.5219 5.06798C18.7621 5.19465 18.8814 5.46839 18.8091 5.72733L16.57 12.6485C16.4359 13.0021 16.4866 13.3981 16.7054 13.7079C16.9242 14.0177 17.2833 14.2018 17.6662 14.2006H25.8298C26.2802 14.1991 26.6913 14.4535 26.8857 14.854C27.0802 15.2546 27.0232 15.7297 26.7394 16.0746L15.1938 27.8015C15.0155 28.0045 14.7183 28.0587 14.4781 27.932C14.2379 27.8054 14.1186 27.5316 14.1909 27.2727L16.43 20.3515C16.5641 19.9979 16.5134 19.6019 16.2946 19.2921C16.0758 18.9823 15.7167 18.7982 15.3338 18.7994H7.17021" fill="white"/>
<path d="M7.17021 18.7994C6.71976 18.8009 6.30869 18.5465 6.11425 18.146C5.91981 17.7454 5.97677 17.2703 6.26056 16.9254L17.8062 5.19847C17.9845 4.99549 18.2817 4.94132 18.5219 5.06798C18.7621 5.19465 18.8814 5.46839 18.8091 5.72733L16.57 12.6485C16.4359 13.0021 16.4866 13.3981 16.7054 13.7079C16.9242 14.0177 17.2833 14.2018 17.6662 14.2006H25.8298C26.2802 14.1991 26.6913 14.4535 26.8857 14.854C27.0802 15.2546 27.0232 15.7297 26.7394 16.0746L15.1938 27.8015C15.0155 28.0045 14.7183 28.0587 14.4781 27.932C14.2379 27.8054 14.1186 27.5316 14.1909 27.2727L16.43 20.3515C16.5641 19.9979 16.5134 19.6019 16.2946 19.2921C16.0758 18.9823 15.7167 18.7982 15.3338 18.7994H7.17021" stroke="white" stroke-width="3" stroke-linecap="round" stroke-linejoin="round"/>
</svg>
