<svg width="32" height="32" viewBox="0 0 32 32" fill="none" xmlns="http://www.w3.org/2000/svg">
<rect width="32" height="32" rx="12" fill="#4F46E5"/>
<path d="M9.99988 17.5C9.71019 17.501 9.44584 17.3351 9.32079 17.0737C9.19575 16.8124 9.23237 16.5025 9.41488 16.2775L16.8399 8.6275C16.9546 8.49509 17.1457 8.45975 17.3002 8.54238C17.4547 8.62501 17.5313 8.80359 17.4849 8.9725L16.0449 13.4875C15.9587 13.7182 15.9912 13.9765 16.1319 14.1786C16.2727 14.3807 16.5036 14.5008 16.7499 14.5H21.9999C22.2896 14.499 22.5539 14.6649 22.679 14.9263C22.804 15.1876 22.7674 15.4975 22.5849 15.7225L15.1599 23.3725C15.0452 23.5049 14.8541 23.5403 14.6996 23.4576C14.5451 23.375 14.4684 23.1964 14.5149 23.0275L15.9549 18.5125C16.0411 18.2818 16.0085 18.0235 15.8678 17.8214C15.7271 17.6193 15.4961 17.4992 15.2499 17.5H9.99988" stroke="white" stroke-width="1.5" stroke-linecap="round" stroke-linejoin="round"/>
</svg>
